<?xml version="1.0" encoding="UTF-8" standalone="no"?>
<!-- Created with Inkscape (http://www.inkscape.org/) -->

<svg
   xmlns:dc="http://purl.org/dc/elements/1.1/"
   xmlns:cc="http://creativecommons.org/ns#"
   xmlns:rdf="http://www.w3.org/1999/02/22-rdf-syntax-ns#"
   xmlns:svg="http://www.w3.org/2000/svg"
   xmlns="http://www.w3.org/2000/svg"
   xmlns:sodipodi="http://sodipodi.sourceforge.net/DTD/sodipodi-0.dtd"
   xmlns:inkscape="http://www.inkscape.org/namespaces/inkscape"
   width="133.0061mm"
   height="133.0061mm"
   version="1.1"
   viewBox="0 0 133.00612 133.0061"
   id="svg8"
   sodipodi:docname="earth.svg"
   inkscape:version="0.92.5 (2060ec1f9f, 2020-04-08)">
  <defs
     id="defs12" />
  <sodipodi:namedview
     pagecolor="#ffffff"
     bordercolor="#666666"
     borderopacity="1"
     objecttolerance="10"
     gridtolerance="10"
     guidetolerance="10"
     inkscape:pageopacity="0"
     inkscape:pageshadow="2"
     inkscape:window-width="2400"
     inkscape:window-height="1321"
     id="namedview10"
     showgrid="false"
     inkscape:zoom="1.4142136"
     inkscape:cx="380.04352"
     inkscape:cy="253.62944"
     inkscape:window-x="-9"
     inkscape:window-y="0"
     inkscape:window-maximized="1"
     inkscape:current-layer="svg8"
     fit-margin-top="0"
     fit-margin-left="0"
     fit-margin-right="0"
     fit-margin-bottom="0" />
  <metadata
     id="metadata2">
    <rdf:RDF>
      <cc:Work
         rdf:about="">
        <dc:format>image/svg+xml</dc:format>
        <dc:type
           rdf:resource="http://purl.org/dc/dcmitype/StillImage" />
        <dc:title></dc:title>
      </cc:Work>
    </rdf:RDF>
  </metadata>
  <path
     inkscape:connector-curvature="0"
     id="path4"
     style="color:#000000;font-variant-ligatures:normal;font-variant-position:normal;font-variant-caps:normal;font-variant-numeric:normal;font-variant-alternates:normal;font-feature-settings:normal;text-indent:0;text-decoration:none;text-decoration-line:none;text-decoration-style:solid;text-decoration-color:#000000;text-transform:none;text-orientation:mixed;dominant-baseline:auto;white-space:normal;shape-padding:0;isolation:auto;mix-blend-mode:normal;solid-color:#000000;fill:#E19783;paint-order:normal;color-rendering:auto;image-rendering:auto;shape-rendering:auto"
     d="m 66.502404,5.3620018 c -33.766,0 -61.1409999,27.3759992 -61.1409999,61.1419992 0,31.718 24.1569999,57.797009 55.0759999,60.843009 a 6.2933,6.2933 0 0 1 0.016,-0.32039 c -30.752,-3.0364 -54.7719999,-28.972009 -54.7719999,-60.522009 0,-33.593 27.2289999,-60.8219992 60.8219999,-60.8219992 33.592996,0 60.821006,27.2289992 60.821006,60.8219992 0,31.405 -23.79801,57.247009 -54.346006,60.479009 a 6.2933,6.2933 0 0 1 0.0243,0.31936 c 30.709996,-3.2454 54.642006,-29.228009 54.642006,-60.798009 0,-33.766 -27.37501,-61.1419992 -61.141006,-61.1419992 z m 0.21601,116.7900082 a 5.427,5.427 0 0 0 -5.4271,5.427 5.427,5.427 0 0 0 5.4271,5.4271 5.427,5.427 0 0 0 5.4271,-5.4271 5.427,5.427 0 0 0 -5.4271,-5.427 z" />
</svg>
