<?xml version="1.0" encoding="UTF-8"?>
<!-- Created with Inkscape (http://www.inkscape.org/) -->
<svg width="44.943mm" height="44.943mm" version="1.1" viewBox="0 0 44.943 44.943" xmlns="http://www.w3.org/2000/svg" xmlns:cc="http://creativecommons.org/ns#" xmlns:dc="http://purl.org/dc/elements/1.1/" xmlns:rdf="http://www.w3.org/1999/02/22-rdf-syntax-ns#">
 <metadata>
  <rdf:RDF>
   <cc:Work rdf:about="">
    <dc:format>image/svg+xml</dc:format>
    <dc:type rdf:resource="http://purl.org/dc/dcmitype/StillImage"/>
    <dc:title/>
   </cc:Work>
  </rdf:RDF>
 </metadata>
 <g transform="translate(-88.653 -107.46)">
  <path d="m111.12 107.46a22.472 22.472 0 0 0-22.472 22.471 22.472 22.472 0 0 0 22.472 22.472 22.472 22.472 0 0 0 22.472-22.472 22.472 22.472 0 0 0-22.472-22.471zm-11.084 11.107h2.4527v18.714h1.7723l4.976-6.4506-5.5058-7.2996v-4.9334l7.4738 9.682 7.4926-9.7127h3.9227l-16.792 22.573h-5.7927v-22.376zm0.39056 0.39355v21.786h5.207l16.207-21.786h-2.9527l-14.437 18.713h-2.3523v-18.713zm22.192 1.7514v20.439h-5.5962l-5.6331-7.4681 1.9574-2.6297 5.0748 6.5738h2.0985v-14.096z" style="fill:#E19783;paint-order:normal"/>
 </g>
</svg>
