<?xml version="1.0" encoding="UTF-8"?>
<!-- Created with Inkscape (http://www.inkscape.org/) -->
<svg width="1920" height="1080" version="1.1" viewBox="0 0 508 285.75" xmlns="http://www.w3.org/2000/svg" xmlns:cc="http://creativecommons.org/ns#" xmlns:dc="http://purl.org/dc/elements/1.1/" xmlns:rdf="http://www.w3.org/1999/02/22-rdf-syntax-ns#">
 <metadata>
  <rdf:RDF>
   <cc:Work rdf:about="">
    <dc:format>image/svg+xml</dc:format>
    <dc:type rdf:resource="http://purl.org/dc/dcmitype/StillImage"/>
    <dc:title/>
   </cc:Work>
  </rdf:RDF>
 </metadata>
 <g transform="translate(0 -11.25)">
  <path transform="matrix(.26458 0 0 .26458 0 11.25)" d="m-181.12-53.738v1187.5h2218.5v-1187.5h-2218.5zm665.58 367.16c89.148 0 161.43 72.279 161.43 161.43 0 79.864-58.01 146.17-134.19 159.12 0.04649 0.65273 0.08008 1.3095 0.08008 1.9746 0 14.768-11.982 26.752-26.75 26.752-14.768 0-26.75-11.984-26.75-26.752 0-0.60098 0.02747-1.196 0.0664-1.7871-76.73-12.485-135.31-79.055-135.31-159.31 0-89.148 72.279-161.43 161.43-161.43zm0 0.84375c-88.692 0-160.58 71.892-160.58 160.58 0 79.821 58.233 146.02 134.53 158.46 1.3237-13.533 12.737-24.117 26.617-24.117 7.5196 0 14.309 3.1122 19.17 8.1113a5.2524 5.2524 0 0 0-0.61328 0.50391c-4.711-4.82-11.282-7.8164-18.557-7.8164-13.49 4e-5 -24.563 10.285-25.824 23.443 3.0672 0.48457 6.1588 0.89276 9.2812 1.2012a16.615 16.615 0 0 0-0.04102 0.84571c-3.1296-0.3083-6.2301-0.71672-9.3047-1.2012-0.03326 0.54985-0.05859 1.1035-0.05859 1.6621 0 14.337 11.611 25.949 25.947 25.949 14.336 0 25.953-11.613 25.953-25.949 0-0.62075-0.0288-1.2342-0.07226-1.8438-3.0694 0.50604-6.1639 0.9353-9.2891 1.2656a16.615 16.615 0 0 0-0.06445-0.84375c3.1234-0.33045 6.2159-0.76067 9.2832-1.2676-0.24608-2.3656-0.80932-4.6355-1.6465-6.7695a5.2524 5.2524 0 0 0 0.70898-0.36914c0.87508 2.2082 1.465 4.5601 1.7246 7.0098 75.751-12.906 133.41-78.848 133.41-158.28 0-88.692-71.889-160.58-160.58-160.58zm-0.25391 56.945 0.91016 0.02735-0.84766 27.543-0.91211-0.02539 0.84961-27.545zm-25.52 3.4336 6.7793 26.979-0.88282 0.22266-6.7812-26.979 0.88477-0.22265zm52.094 0.12109 0.87109 0.26367-7.9102 26.133-0.8711-0.26563 7.9102-26.131zm24.908 10.057 0.76953 0.49024-14.832 23.443-0.76758-0.48438 14.83-23.449zm-101.76 0.02735 13.137 24.152-0.80078 0.43555-13.135-24.152 0.79882-0.43554zm40.309 1.0293 1.1328 13.699-0.91016 0.07422-1.1289-13.699 0.90625-0.07422zm21.699 0.09766 0.89453 0.16016-2.4004 13.559-0.89453-0.15625 2.4004-13.562zm22.352 5.9629 0.82812 0.38281-5.6484 12.287-0.82813-0.38086 5.6484-12.289zm-66.537 0.02734 4.8008 12.285-0.84766 0.33203-4.8008-12.289 0.84766-0.32813zm105.49 8.4473 0.62109 0.66406-20.764 19.492-0.625-0.66406 20.768-19.492zm-145.13 0.30078 19.494 20.338-0.65625 0.63086-19.492-20.34 0.6543-0.62891zm19.252 2.3066 7.9102 10.875-0.73633 0.53711-7.9121-10.877 0.73829-0.53516zm107.06 0.25391 0.69336 0.59179-9.043 10.592-0.69336-0.58984 9.043-10.594zm-54.906 5.2051a64.921 64.921 0 0 1 64.92 64.922 64.921 64.921 0 0 1-64.92 64.922 64.921 64.921 0 0 1-64.922-64.922 64.921 64.921 0 0 1 64.922-64.922zm71.084 10.967 0.53906 0.73438-11.158 8.1914-0.53907-0.73242 11.158-8.1934zm-139.71 0.71485 10.312 7.9082-0.55469 0.72266-10.312-7.9121 0.55469-0.71875zm158.27 1.7988 0.4375 0.79688-24.152 13.277-0.43945-0.79687 24.154-13.277zm-177.1 0.42969 23.869 14.266-0.46485 0.7832-23.873-14.268 0.46875-0.78125zm7.1582 16.785 12.289 5.6504-0.38086 0.82812-12.287-5.6523 0.37891-0.82617zm163.22 0.26953 0.3125 0.85352-12.711 4.6621-0.3125-0.85351 12.711-4.6621zm-114.94 1.125v0.56836 64.645h16.734l48.512-65.213h-11.332l-21.646 28.061-21.592-27.971v14.252l15.904 21.088-14.375 18.637h-5.1192v-54.066h-7.0859zm1.127 1.1367h4.832v54.062h6.7949l41.707-54.062h8.5313l-46.822 62.941h-15.043v-62.941zm130.95 4.6465 0.23437 0.87891-26.559 7.0644-0.23242-0.88086 26.557-7.0625zm-66.834 0.41406-6.0644 8.1445v40.725h-6.0625l-14.66-18.992-5.6562 7.5957 16.275 21.576h16.168v-59.049zm-131.1 0.1543 26.697 7.9102-0.25781 0.875-26.695-7.9102 0.25586-0.875zm11.24 14.818 13.418 1.9766-0.13476 0.90235-13.418-1.9766 0.13476-0.90234zm175.74 0.14063 0.0918 0.90234-13.701 1.4141-0.0918-0.9082 13.701-1.4082zm-12.516 10.873 27.4 0.56641-0.01953 0.9082-27.4-0.5664 0.01954-0.90821zm-178.26 0.98828 28.113 0.28125-0.01171 0.91211-28.107-0.2832 0.00586-0.91016zm177.2 9.1875 13.418 2.2578-0.15039 0.89843-13.42-2.2578 0.15235-0.89844zm-148.73 0.13672 0.11133 0.9043-13.418 1.6934-0.11328-0.90234 13.42-1.6953zm146.94 8.9141 26.836 7.7676-0.25195 0.875-26.836-7.7695 0.25196-0.87304zm-145.02 1.4082 0.22265 0.88281-26.98 6.7812-0.22266-0.88476 26.98-6.7793zm142.11 8.2168 12.287 5.5098-0.3711 0.83203-12.289-5.5078 0.37305-0.83398zm-138.92 0.69921 0.33399 0.84766-12.57 4.9453-0.33594-0.84765 12.572-4.9453zm134.73 7.9434 23.729 14.266-0.46875 0.7793-23.729-14.264 0.46875-0.78125zm-129.7 1.123 0.43946 0.79688-24.578 13.559-0.4375-0.79688 24.576-13.559zm4.748 7.5215 0.55274 0.72657-11.162 8.4726-0.54883-0.72265 11.158-8.4766zm119.06 0 10.875 8.334-0.55273 0.72266-10.877-8.334 0.55469-0.72266zm-6.1641 6.9688 19.771 20.48-0.65429 0.63086-19.773-20.482 0.65625-0.6289zm-106.59 0.98046 0.63867 0.64844-19.916 19.633-0.64063-0.64843 19.918-19.633zm99.42 5.9863 8.1934 11.16-0.73633 0.53515-8.1934-11.156 0.73633-0.53906zm-91.975 0.13086 0.72071 0.55859-8.4766 10.877-0.71679-0.56055 8.4726-10.875zm84.236 4.8613 13.699 24.719-0.79297 0.44141-13.701-24.719 0.79492-0.44141zm-75.795 0.97656 0.7832 0.4668-14.123 23.73-0.78321-0.46485 14.123-23.732zm66.215 3.5996 4.9453 12.711-0.84766 0.33203-4.9434-12.715 0.8457-0.32813zm-57.762 0.26172 0.83007 0.37305-5.3672 12.004-0.83008-0.37304 5.3672-12.004zm49.447 2.9004 6.6387 26.697-0.88281 0.21875-6.6387-26.697 0.88281-0.21875zm-39.861 0.12109 0.86914 0.25782-7.9102 26.84-0.8711-0.25977 7.9121-26.838zm9.166 1.9102 0.90039 0.11328-1.8359 14.125-0.9043-0.11523 1.8398-14.123zm20.537 0.15039 1.4141 13.561-0.9082 0.0957-1.4141-13.562 0.90821-0.09375zm-10.232 0.74219 0.9121 0.02148-0.56835 27.686-0.90821-0.01953 0.56446-27.688zm22.258 70a3.1626 3.1626 0 0 1 3.1641 3.1621 3.1626 3.1626 0 0 1-3.1641 3.1621 3.1626 3.1626 0 0 1-3.1621-3.1621 3.1626 3.1626 0 0 1 3.1621-3.1621zm-22.137 3.291a14.328 14.328 0 0 1 14.326 14.33 14.328 14.328 0 0 1-14.326 14.328 14.328 14.328 0 0 1-14.328-14.328 14.328 14.328 0 0 1 14.328-14.33z" style="fill:#312c33;paint-order:normal"/>
 </g>
</svg>
