<?xml version="1.0" encoding="UTF-8" standalone="no"?>
<!-- Created with Inkscape (http://www.inkscape.org/) -->

<svg
   xmlns:dc="http://purl.org/dc/elements/1.1/"
   xmlns:cc="http://creativecommons.org/ns#"
   xmlns:rdf="http://www.w3.org/1999/02/22-rdf-syntax-ns#"
   xmlns:svg="http://www.w3.org/2000/svg"
   xmlns="http://www.w3.org/2000/svg"
   xmlns:sodipodi="http://sodipodi.sourceforge.net/DTD/sodipodi-0.dtd"
   xmlns:inkscape="http://www.inkscape.org/namespaces/inkscape"
   width="11.070644mm"
   height="11.070127mm"
   version="1.1"
   viewBox="0 0 11.070644 11.070128"
   id="svg2208"
   sodipodi:docname="moon.svg"
   inkscape:version="0.92.5 (2060ec1f9f, 2020-04-08)">
  <defs
     id="defs2212" />
  <sodipodi:namedview
     pagecolor="#ffffff"
     bordercolor="#666666"
     borderopacity="1"
     objecttolerance="10"
     gridtolerance="10"
     guidetolerance="10"
     inkscape:pageopacity="0"
     inkscape:pageshadow="2"
     inkscape:window-width="994"
     inkscape:window-height="820"
     id="namedview2210"
     showgrid="false"
     fit-margin-top="0"
     fit-margin-left="0"
     fit-margin-right="0"
     fit-margin-bottom="0"
     inkscape:zoom="3.0814087"
     inkscape:cx="42.761288"
     inkscape:cy="22.542559"
     inkscape:window-x="881"
     inkscape:window-y="244"
     inkscape:window-maximized="0"
     inkscape:current-layer="svg2208" />
  <metadata
     id="metadata2202">
    <rdf:RDF>
      <cc:Work
         rdf:about="">
        <dc:format>image/svg+xml</dc:format>
        <dc:type
           rdf:resource="http://purl.org/dc/dcmitype/StillImage" />
        <dc:title></dc:title>
      </cc:Work>
    </rdf:RDF>
  </metadata>
  <path
     inkscape:connector-curvature="0"
     style="opacity:1;fill:#E19783;fill-opacity:1;stroke:none;stroke-width:0.17045926;stroke-linecap:round;stroke-linejoin:round;stroke-miterlimit:4;stroke-dasharray:none;stroke-dashoffset:0;stroke-opacity:1;paint-order:normal"
     d="M 5.5350623,0 C 2.4793574,0 0,2.479352 0,5.5350648 c 0,3.055696 2.4793574,5.5350622 5.5350623,5.5350622 3.0557075,0 5.5355817,-2.4793662 5.5355817,-5.5350622 0,-0.7509668 -0.150945,-1.4666618 -0.422196,-2.1197678 -0.05431,0.04005 -0.112257,0.07475 -0.174151,0.103352 0.25428,0.622376 0.396875,1.302409 0.396875,2.0164158 0,2.947617 -2.3884922,5.3340392 -5.3361097,5.3340392 -2.9476173,0 -5.3340398,-2.3864222 -5.3340398,-5.3340392 0,-2.9476228 2.3864225,-5.3355928 5.3340398,-5.3355928 1.5207535,0 2.8894375,0.638545 3.8612635,1.658813 0.05005,-0.04396 0.10414,-0.08235 0.162266,-0.115755 C 8.5491108,0.672039 7.1216678,0 5.5350623,0 Z m 4.5201397,1.961639 c -0.3578602,0 -0.6480342,0.289645 -0.6480232,0.647505 2e-6,0.357851 0.290171,0.648022 0.6480232,0.648022 0.357849,0 0.64802,-0.290181 0.648023,-0.648022 8e-6,-0.35786 -0.290166,-0.647505 -0.648023,-0.647505 z"
     id="path4933" />
</svg>
