<?xml version="1.0" encoding="UTF-8"?>
<!-- Created with Inkscape (http://www.inkscape.org/) -->
<svg width="20.264mm" height="20.264mm" version="1.1" viewBox="0 0 20.264 20.264" xmlns="http://www.w3.org/2000/svg" xmlns:cc="http://creativecommons.org/ns#" xmlns:dc="http://purl.org/dc/elements/1.1/" xmlns:rdf="http://www.w3.org/1999/02/22-rdf-syntax-ns#">
 <metadata>
  <rdf:RDF>
   <cc:Work rdf:about="">
    <dc:format>image/svg+xml</dc:format>
    <dc:type rdf:resource="http://purl.org/dc/dcmitype/StillImage"/>
    <dc:title/>
   </cc:Work>
  </rdf:RDF>
 </metadata>
 <g transform="translate(-111.28 -162.06)">
  <path d="m121.41 162.06c-5.5937 0-10.132 4.538-10.132 10.132 0 5.5937 4.538 10.132 10.132 10.132 5.5937 0 10.132-4.5385 10.132-10.132 0-1.4844-0.32253-2.893-0.89659-4.1636a1.5171 1.5171 0 0 1-0.26561 0.14418c0.55066 1.2273 0.85989 2.5866 0.85989 4.0194 0 5.4301-4.3998 9.8283-9.8299 9.8283s-9.8278-4.3983-9.8278-9.8283 4.3977-9.8294 9.8278-9.8294c2.9249 0 5.5497 1.2778 7.3499 3.3042a1.5171 1.5171 0 0 1 0.23875-0.18294c-1.8566-2.0985-4.5679-3.4236-7.5887-3.4236zm8.3855 3.5155a1.1978 1.1978 0 0 0-1.1979 1.1979 1.1978 1.1978 0 0 0 1.1979 1.1978 1.1978 1.1978 0 0 0 1.1978-1.1978 1.1978 1.1978 0 0 0-1.1978-1.1979z" style="fill:#E19783;paint-order:normal"/>
 </g>
</svg>
