<?xml version="1.0" encoding="UTF-8" standalone="no"?>
<!-- Created with Inkscape (http://www.inkscape.org/) -->

<svg
   xmlns:dc="http://purl.org/dc/elements/1.1/"
   xmlns:cc="http://creativecommons.org/ns#"
   xmlns:rdf="http://www.w3.org/1999/02/22-rdf-syntax-ns#"
   xmlns:svg="http://www.w3.org/2000/svg"
   xmlns="http://www.w3.org/2000/svg"
   xmlns:sodipodi="http://sodipodi.sourceforge.net/DTD/sodipodi-0.dtd"
   xmlns:inkscape="http://www.inkscape.org/namespaces/inkscape"
   width="48.353153mm"
   height="48.187752mm"
   version="1.1"
   viewBox="0 0 48.353152 48.187753"
   id="svg7615"
   sodipodi:docname="rays.svg"
   inkscape:version="0.92.5 (2060ec1f9f, 2020-04-08)">
  <defs
     id="defs7619" />
  <sodipodi:namedview
     pagecolor="#ffffff"
     bordercolor="#666666"
     borderopacity="1"
     objecttolerance="10"
     gridtolerance="10"
     guidetolerance="10"
     inkscape:pageopacity="0"
     inkscape:pageshadow="2"
     inkscape:window-width="1920"
     inkscape:window-height="1051"
     id="namedview7617"
     showgrid="false"
     fit-margin-top="0"
     fit-margin-left="0"
     fit-margin-right="0"
     fit-margin-bottom="0"
     inkscape:zoom="0.8800923"
     inkscape:cx="86.152112"
     inkscape:cy="113.78836"
     inkscape:window-x="2391"
     inkscape:window-y="-9"
     inkscape:window-maximized="1"
     inkscape:current-layer="svg7615" />
  <metadata
     id="metadata7609">
    <rdf:RDF>
      <cc:Work
         rdf:about="">
        <dc:format>image/svg+xml</dc:format>
        <dc:type
           rdf:resource="http://purl.org/dc/dcmitype/StillImage" />
        <dc:title></dc:title>
      </cc:Work>
    </rdf:RDF>
  </metadata>
  <path
     inkscape:connector-curvature="0"
     style="color:#000000;font-style:normal;font-variant:normal;font-weight:normal;font-stretch:normal;font-size:medium;line-height:normal;font-family:sans-serif;font-variant-ligatures:normal;font-variant-position:normal;font-variant-caps:normal;font-variant-numeric:normal;font-variant-alternates:normal;font-feature-settings:normal;text-indent:0;text-align:start;text-decoration:none;text-decoration-line:none;text-decoration-style:solid;text-decoration-color:#000000;letter-spacing:normal;word-spacing:normal;text-transform:none;writing-mode:lr-tb;direction:ltr;text-orientation:mixed;dominant-baseline:auto;baseline-shift:baseline;text-anchor:start;white-space:normal;shape-padding:0;clip-rule:nonzero;display:inline;overflow:visible;visibility:visible;opacity:1;isolation:auto;mix-blend-mode:normal;color-interpolation:sRGB;color-interpolation-filters:linearRGB;solid-color:#000000;solid-opacity:1;vector-effect:none;fill:#E19783;fill-opacity:1;fill-rule:nonzero;stroke:none;stroke-width:0.40000001;stroke-linecap:butt;stroke-linejoin:miter;stroke-miterlimit:4;stroke-dasharray:none;stroke-dashoffset:0;stroke-opacity:1;color-rendering:auto;image-rendering:auto;shape-rendering:auto;text-rendering:auto;enable-background:accumulate"
     d="m 24.083832,0 -0.187584,8.740034 0.398425,0.01035 0.187585,-8.740553 z m -5.820315,0.757576 -0.388606,0.09974 2.175576,8.521443 0.387056,-0.09973 z m 12.066448,0.08423 -2.435511,8.337992 0.382921,0.111103 2.437577,-8.335925 z m -17.906402,2.267561 -0.351399,0.19327 4.226616,7.634677 0.349332,-0.195339 z m 23.759789,0.101285 -4.603334,7.474995 0.340029,0.210842 4.605404,-7.476546 z m -14.259594,0.21704 -0.396356,0.03928 0.546735,5.460648 0.396359,-0.04082 z m 4.915979,0.04858 -0.859379,5.423959 0.394292,0.0646 0.859377,-5.426025 z m -10.214879,1.326534 -0.373105,0.148313 1.978691,4.988324 0.373103,-0.148312 z m 15.468822,0.07803 -2.199349,4.97644 0.367419,0.162266 2.197282,-4.976442 z m -24.834144,1.914097 -0.286803,0.2775 6.187221,6.374805 0.287319,-0.279051 z m 33.988624,0.0801 -6.46679,6.189287 0.274921,0.289388 6.466787,-6.189803 z m -29.44368,0.482142 -0.321945,0.238744 3.232362,4.36511 0.320394,-0.238228 z m 25.017595,0.191717 -3.497979,4.281396 0.308509,0.25373 3.500043,-4.281393 z m -28.931569,3.798737 -0.243914,0.316259 4.22455,3.24063 0.241845,-0.318844 z m 32.734436,0.0041 -4.416266,3.29489 0.238228,0.319876 4.416266,-3.294888 z M 3.4453,11.857125 3.240145,12.20284 l 7.570081,4.473112 0.203086,-0.344164 z m 41.541134,0.08423 -7.636743,4.259689 0.193268,0.349848 7.636745,-4.2602 z m -39.87922,3.851444 -0.162264,0.367419 4.980575,2.2009 0.160195,-0.364837 z m 38.294821,0.261999 -5.085479,1.964737 0.144179,0.373105 5.085993,-1.964737 z m -42.452708,1.55081 -0.11162,0.384474 8.46305,2.429825 0.111104,-0.38499 z m 46.482434,0.07183 -8.437727,2.246373 0.103352,0.38654 8.437729,-2.245857 z m -43.867605,3.40651 -0.05633,0.396357 5.402255,0.765844 0.05684,-0.396356 z m 41.289468,0.243912 -5.468916,0.619082 0.04496,0.398944 5.468919,-0.619601 z m -5.222936,2.559015 -0.0057,0.398426 8.722464,0.13281 0.0057,-0.400492 z M 0.0021,23.904475 0,24.3029 l 8.867161,0.05633 0.0021,-0.398425 z m 8.915733,1.90996 -5.402254,0.681612 0.04858,0.396359 5.40277,-0.681611 z m 30.496331,0.156062 -0.06253,0.396875 5.398121,0.83561 0.06253,-0.394293 z m -0.363287,1.855703 -0.109553,0.384471 8.496123,2.404505 0.109553,-0.38499 z m -29.764074,0.107487 -8.532813,2.18953 0.09922,0.386541 8.533331,-2.189533 z m 0.628904,1.835547 -5.04879,2.025716 0.148828,0.373102 5.04879,-2.027266 z m 28.539342,0.02946 -0.158131,0.367419 4.984192,2.163691 0.160197,-0.366903 z m -0.85576,1.771467 -0.203089,0.343649 7.545276,4.482412 0.203086,-0.343648 z m -26.675377,0.06666 -7.718906,4.325835 0.195336,0.34985 7.718907,-4.326353 z m 0.94878,1.556494 -4.419886,3.359486 0.242364,0.318325 4.419886,-3.359483 z m 24.523568,0.148312 -0.243911,0.318325 4.341852,3.346051 0.243914,-0.316778 z m -1.263489,1.427819 -0.285255,0.279569 6.244064,6.412013 0.287321,-0.279569 z m -21.986256,0.07028 -6.289021,6.222876 0.28112,0.283186 6.289021,-6.222876 z m 1.507919,1.271757 -3.373437,4.349604 0.316777,0.243914 3.372919,-4.347538 z m 19.011244,0.08785 -0.319879,0.238229 3.302643,4.427638 0.320392,-0.240298 z m -1.583883,1.023194 -0.347782,0.195337 4.36149,7.763867 0.34985,-0.195336 z m -15.71067,0.105421 -4.447273,7.548893 0.343649,0.203086 4.447273,-7.548893 z m 1.72031,0.812869 -2.132687,4.908227 0.365352,0.159681 2.132688,-4.908227 z m 12.029755,0.02119 -0.371552,0.146762 2.011762,5.076174 0.371555,-0.148828 z m -10.076386,0.623218 -2.439644,8.486304 0.382921,0.111104 2.441712,-8.486304 z m 8.373131,0.02532 -0.386538,0.09974 2.155939,8.454779 0.388607,-0.09974 z m -6.49986,0.394292 -0.736391,5.5547 0.396359,0.05271 0.736388,-5.554699 z m 4.417816,0.05478 -0.396356,0.04496 0.621149,5.429642 0.398426,-0.04496 z m -2.308902,0.152445 -0.124539,8.76949 0.399976,0.0062 0.125055,-8.76949 z"
     id="path849" />
</svg>
