<?xml version="1.0" encoding="UTF-8"?>
<!-- Created with Inkscape (http://www.inkscape.org/) -->
<svg width="71.191mm" height="70.949mm" version="1.1" viewBox="0 0 71.191 70.949" xmlns="http://www.w3.org/2000/svg" xmlns:cc="http://creativecommons.org/ns#" xmlns:dc="http://purl.org/dc/elements/1.1/" xmlns:rdf="http://www.w3.org/1999/02/22-rdf-syntax-ns#">
 <metadata>
  <rdf:RDF>
   <cc:Work rdf:about="">
    <dc:format>image/svg+xml</dc:format>
    <dc:type rdf:resource="http://purl.org/dc/dcmitype/StillImage"/>
    <dc:title/>
   </cc:Work>
  </rdf:RDF>
 </metadata>
 <g transform="translate(-90.208 -100.36)">
  <path d="m125.65 100.36-0.29339 9.5338 0.3151 9e-3 0.2934-9.5338zm-8.833 1.1888-0.30561 0.0771 2.3469 9.3379 0.30561-0.0771zm18.031 0.0412-2.7377 9.0453 0.30154 0.0915 2.738-9.0456zm8.6219 3.4814-5.1329 8.1163 0.26544 0.16827 5.1343-8.1152zm-35.224 9e-3 -0.27602 0.1509 4.5464 8.3603 0.27711-0.15091zm13.953 0.35609-0.31375 0.0255 0.39083 4.7424 0.31483-0.0255zm7.511 0.0339-0.83106 4.694 0.30995 0.0543 0.83078-4.693zm7.7366 2.0638-1.9552 4.2541 0.28634 0.1311 1.955-4.2527zm-23.031 9e-3 -0.29339 0.11372 1.6618 4.2541 0.2934-0.11481zm36.513 2.9244-7.188 6.7467 0.21659 0.22988 7.1867-6.7467zm-50.236 0.10368-0.22662 0.2174 6.7467 7.0412 0.22771-0.21848zm6.6637 0.79822-0.25539 0.18565 2.738 3.7647 0.25539-0.18592zm37.057 0.0882-3.1299 3.667 0.2402 0.20437 3.1296-3.6662zm5.5997 5.5978-3.8622 2.8362 0.18673 0.25322 3.8622-2.8352zm-48.36 0.24698-0.19189 0.24942 3.5699 2.7388 0.19189-0.25024zm54.783 0.62289-8.3602 4.5955 0.15172 0.27602 8.3602-4.5958zm-61.3 0.14873-0.16203 0.2706 8.2628 4.9383 0.16094-0.27087zm2.4782 5.8101-0.13218 0.28607 4.2538 1.9563 0.13136-0.28634zm56.496 0.0934-4.3998 1.6135 0.10775 0.29529 4.4006-1.6135zm5.93 2.3911-9.1921 2.4443 0.0809 0.30479 9.1924-2.4446zm-68.51 0.19705-0.0893 0.30236 9.2404 2.738 0.0893-0.30262zm3.8899 5.1288-0.04614 0.31185 4.6446 0.68422 0.0461-0.31184zm60.831 0.0483-4.7421 0.48827 0.0317 0.31376 4.7424-0.48909zm-4.3317 3.7636-6e-3 0.31484 9.4844 0.19595 6e-3 -0.31483zm-61.703 0.34251-0.0029 0.31511 9.7287 0.0974 4e-3 -0.31511zm61.335 3.1801-0.0524 0.31076 4.6449 0.78167 0.0521-0.31078zm-51.48 0.0472-4.6449 0.58679 0.03908 0.31267 4.6449-0.58679zm50.862 3.0854-0.0874 0.30262 9.2898 2.6889 0.0871-0.30263zm-50.196 0.48745-9.339 2.3469 0.07708 0.30588 9.3387-2.3472zm49.19 2.8444-0.12946 0.28823 4.2541 1.9072 0.12837-0.28824zm-48.086 0.2421-4.3515 1.7112 0.11589 0.2934 4.3515-1.7112zm46.635 2.7491-0.16203 0.27088 8.2137 4.9372 0.16203-0.26979zm-44.893 0.38894-8.5068 4.6929 0.15172 0.27603 8.5071-4.693zm1.6434 2.6034-3.8622 2.9339 0.18972 0.25023 3.8633-2.9328zm41.212 0-0.19189 0.2505 3.7647 2.8845 0.19162-0.2505zm-2.1338 2.4117-0.22662 0.21849 6.8442 7.0892 0.22662-0.21848zm-36.893 0.33954-6.8944 6.7958 0.22174 0.22474 6.8933-6.7958zm34.413 2.0722-0.25432 0.18671 2.8362 3.8619 0.25459-0.18565zm-31.836 0.045-2.9329 3.7647 0.24834 0.19377 2.9337-3.7647zm29.157 1.6833-0.27494 0.15281 4.7424 8.5562 0.27494-0.15279zm-26.235 0.33764-4.8889 8.2145 0.27086 0.16094 4.8889-8.2134zm22.92 1.2463-0.29339 0.11373 1.7112 4.4006 0.29341-0.1148zm-19.994 0.0901-1.8578 4.1556 0.28715 0.1292 1.8578-4.1553zm17.115 1.0045-0.30561 0.0757 2.2978 9.2404 0.30561-0.0757zm-13.798 0.0418-2.738 9.2898 0.30153 0.0893 2.738-9.2898zm3.1728 0.66087-0.63619 4.8889 0.31294 0.0399 0.6351-4.8889zm7.1088 0.0521-0.31402 0.0328 0.48935 4.694 0.31402-0.0328zm-3.5411 0.25758-0.19595 9.5829 0.31483 6e-3 0.19596-9.583z" style="color-rendering:auto;color:#000000;dominant-baseline:auto;fill:#E19783;font-feature-settings:normal;font-variant-alternates:normal;font-variant-caps:normal;font-variant-ligatures:normal;font-variant-numeric:normal;font-variant-position:normal;image-rendering:auto;isolation:auto;mix-blend-mode:normal;shape-padding:0;shape-rendering:auto;solid-color:#000000;text-decoration-color:#000000;text-decoration-line:none;text-decoration-style:solid;text-indent:0;text-orientation:mixed;text-transform:none;white-space:normal"/>
 </g>
</svg>
