<?xml version="1.0" encoding="UTF-8"?>
<!-- Created with Inkscape (http://www.inkscape.org/) -->
<svg width="26.458mm" height="26.458mm" version="1.1" viewBox="0 0 26.458 26.458" xmlns="http://www.w3.org/2000/svg" xmlns:cc="http://creativecommons.org/ns#" xmlns:dc="http://purl.org/dc/elements/1.1/" xmlns:rdf="http://www.w3.org/1999/02/22-rdf-syntax-ns#">
 <metadata>
  <rdf:RDF>
   <cc:Work rdf:about="">
    <dc:format>image/svg+xml</dc:format>
    <dc:type rdf:resource="http://purl.org/dc/dcmitype/StillImage"/>
   </cc:Work>
  </rdf:RDF>
 </metadata>
 <g transform="translate(-114.83 -41.493)" stroke-linecap="round" stroke-linejoin="round">
  <path d="m114.83 41.493v26.458h6.8194l3.2072-4.3468c0.43872-0.59462 0.85971-1.1623 1.2449-1.6793 0.38515-0.51704 0.73454-0.98359 1.0299-1.3761 0.29539-0.39251 0.53684-0.71107 0.70628-0.93208 0.0847-0.11051 0.15141-0.19652 0.19785-0.25535 0.0464-0.05883 0.0725-0.09047 0.0762-0.09174 2e-3 -6.19e-4 9e-3 0.0064 0.0224 0.02073 0.013 0.01429 0.0314 0.03596 0.055 0.06444 0.0471 0.05697 0.11484 0.14156 0.20096 0.25086 0.17222 0.2186 0.41781 0.53588 0.71868 0.92828s0.65709 0.85984 1.0503 1.3787c0.3932 0.51885 0.8234 1.0891 1.2726 1.6871l3.267 4.3486 3.2915 0.0016 2.8799 0.0012h0.37175v-23.404c-1e-3 -0.07202-2e-3 -0.18336-4e-3 -0.23669-0.0329 0.01665-0.0585-0.02292-0.3309 0.27695-0.22053 0.29571-0.57775 0.70362-0.89724 1.1359l-1.1618 1.5722v16.59l-1.2323-1.77e-4 -1.2324-3.53e-4 -1.6223-2.1083c-0.89226-1.1595-2.2356-2.9054-2.9854-3.8798l-1.3633-1.7717 0.30764-0.42c0.16921-0.23102 2.6008-3.5095 5.4034-7.2854 1.4013-1.888 2.6752-3.6076 3.5988-4.8575 0.4618-0.62495 0.83599-1.1325 1.0948-1.4848 0.25877-0.3523 0.40209-0.54933 0.40209-0.55355l0.0228-0.0311zm3.2188 3.46e-4h18.636l-4.3566 5.663c-1.198 1.5573-2.2913 2.9756-3.0876 4.0061-0.39817 0.51527-0.72208 0.9336-0.94774 1.2239-0.22565 0.29029-0.35304 0.45264-0.35814 0.45576-3e-3 0.0016-0.0355-0.03647-0.0958-0.11023-0.0603-0.07376-0.1481-0.18321-0.26024-0.32463-0.22429-0.28284-0.54616-0.69337-0.94188-1.2009s-0.86524-1.1121-1.3846-1.7831c-0.51939-0.67099-1.0887-1.4084-1.684-2.1815-1.1906-1.5464-2.2755-2.9522-3.0643-3.9714-0.39441-0.5096-0.71483-0.92261-0.93739-1.2082s-0.34727-0.44367-0.35038-0.44367c-3e-3 0-6e-3 0.08049-9e-3 0.22581-3e-3 0.14532-5e-3 0.35555-7e-3 0.61488-4e-3 0.51866-6e-3 1.2339-6e-3 2.0209l2e-3 2.8617 3.2122 4.2662 3.2122 4.2663-2.9152 3.7869-2.9154 3.7869h-1.7414v-10.977z" fill="#e75054" stroke-width=".50046"/>
  <path d="m119.22 41.618c-0.0124 0-0.0219 1.2877-0.021 2.8616l2e-3 2.8617 3.2122 4.2662 3.2122 4.2663 2.3477-3.0761c-3.6e-4 4.43e-4 -0.0338 0.04396-0.034 0.04406-0.0204 0.01249-1.9853-2.5077-4.3666-5.6004s-4.3397-5.6232-4.3521-5.6232zm22.066 1.9348-2.7865 3.9196v16.413l-0.87931-1.77e-4 -1.2325-3.53e-4 -1.6223-2.1083c-0.89226-1.1595-2.2356-2.9054-2.9854-3.8798l-1.3633-1.7717 0.0764-0.10435-2.4971 3.4061c0.0124-0.01492 0.11834-0.15676 0.12013-0.15739 0.0291-0.01022 1.5231 1.9384 3.3199 4.3301l3.267 4.3486 3.2915 0.0016 3.2913 0.0014 6e-3 -11.965c7e-3 -31.861-0.0164 24.357-5e-3 -12.433z" fill="#b4515b" stroke-width=".35417"/>
 </g>
</svg>
