<?xml version="1.0" standalone="no"?>
<!DOCTYPE svg PUBLIC "-//W3C//DTD SVG 20010904//EN"
 "http://www.w3.org/TR/2001/REC-SVG-20010904/DTD/svg10.dtd">
<svg version="1.0" xmlns="http://www.w3.org/2000/svg"
 width="700.000000pt" height="700.000000pt" viewBox="0 0 700.000000 700.000000"
 preserveAspectRatio="xMidYMid meet">
<metadata>
Created by potrace 1.14, written by Peter Selinger 2001-2017
</metadata>
<g transform="translate(0.000000,700.000000) scale(0.100000,-0.100000)"
fill="#000000" stroke="none">
<path d="M0 3502 l0 -3498 898 0 897 0 209 280 c115 155 275 370 356 478 81
109 155 208 164 220 25 35 286 385 407 548 60 80 115 154 123 165 404 546 457
615 464 615 4 -1 59 -70 122 -156 63 -85 125 -167 137 -182 32 -39 34 -41 78
-102 22 -30 42 -57 45 -60 3 -3 106 -140 230 -305 123 -165 227 -302 230 -305
3 -3 78 -103 168 -222 89 -120 168 -226 176 -235 8 -10 59 -76 112 -148 208
-279 399 -531 411 -543 7 -8 18 -22 23 -33 10 -19 33 -19 880 -19 l869 0 0
3160 c0 1738 -3 3160 -7 3160 -4 -1 -51 -60 -104 -133 -53 -73 -196 -265 -317
-427 l-220 -295 -1 -2187 0 -2187 -324 0 -325 -1 -38 49 c-21 26 -49 63 -63
81 -14 18 -69 89 -123 159 -54 69 -124 160 -155 201 -32 41 -119 154 -193 250
-75 96 -208 270 -297 385 -176 228 -310 401 -329 425 -6 8 -65 84 -130 169
-65 84 -146 189 -180 234 -35 44 -63 84 -63 90 0 5 31 50 68 101 38 50 142
190 232 311 90 121 234 315 320 430 301 405 507 682 644 865 75 102 146 196
156 210 10 14 54 72 97 130 176 238 666 897 680 915 5 6 26 35 48 65 22 30 42
57 45 60 3 3 37 48 75 100 38 52 72 97 76 100 4 3 15 19 25 35 20 31 365 496
392 528 14 16 -15 17 -595 17 l-611 0 -43 -57 c-48 -65 -49 -66 -82 -108 -19
-23 -549 -711 -664 -861 -12 -16 -75 -96 -139 -179 -64 -82 -135 -175 -157
-205 -22 -30 -43 -57 -46 -60 -4 -3 -20 -23 -36 -45 -16 -22 -35 -47 -42 -55
-7 -8 -100 -130 -208 -270 -108 -140 -201 -262 -208 -270 -7 -8 -127 -163
-267 -345 -139 -181 -293 -381 -341 -443 l-88 -112 -360 467 c-199 258 -415
538 -481 623 -158 204 -269 348 -300 390 -14 18 -30 38 -35 44 -6 6 -37 47
-70 91 -33 44 -68 89 -77 100 -9 11 -195 252 -414 535 -218 283 -427 554 -464
601 -37 47 -75 98 -85 112 -9 15 -20 27 -24 27 -3 0 -6 -341 -6 -759 l0 -758
251 -334 c201 -267 670 -890 781 -1035 12 -16 169 -224 348 -462 l327 -433
-44 -56 c-24 -31 -215 -280 -425 -552 -210 -273 -391 -507 -402 -521 -10 -14
-115 -149 -232 -301 -118 -152 -225 -291 -239 -309 -14 -18 -65 -84 -113 -146
l-88 -114 -274 0 -275 0 0 2900 0 2900 -380 0 -380 0 0 -3498z m637 484 c1
-1589 4 -2894 6 -2900 3 -8 107 -11 367 -10 301 1 364 3 370 15 5 8 43 59 86
114 43 55 198 255 344 445 146 190 373 485 505 655 132 171 310 402 397 515
87 113 164 212 171 220 7 8 26 33 42 55 17 22 77 101 135 175 134 174 785
1017 910 1180 53 69 134 175 181 235 77 99 382 495 401 520 4 6 18 24 31 40
13 17 163 210 332 430 170 220 331 430 359 466 28 36 101 130 161 208 61 79
124 160 140 181 17 20 83 107 148 192 l119 156 454 0 c252 0 454 -4 452 -9 -2
-5 -59 -84 -128 -176 -208 -280 -456 -614 -660 -888 -106 -143 -218 -294 -249
-335 -31 -41 -61 -82 -68 -90 -10 -13 -582 -783 -627 -845 -14 -19 -511 -687
-603 -810 -47 -63 -264 -355 -499 -670 -78 -105 -255 -343 -394 -530 -139
-187 -334 -450 -434 -583 -100 -134 -282 -380 -406 -546 -124 -166 -277 -371
-340 -456 -63 -85 -225 -304 -360 -485 l-246 -330 -804 0 -805 0 -3 3376 -2
3377 257 -2 258 -1 2 -2889z"/>
</g>
</svg>
