<?xml version="1.0" standalone="no"?>
<!DOCTYPE svg PUBLIC "-//W3C//DTD SVG 20010904//EN"
 "http://www.w3.org/TR/2001/REC-SVG-20010904/DTD/svg10.dtd">
<svg version="1.0" xmlns="http://www.w3.org/2000/svg"
 width="600.000000pt" height="600.000000pt" viewBox="0 0 600.000000 600.000000"
 preserveAspectRatio="xMidYMid meet">
<metadata>
Created by potrace 1.14, written by Peter Selinger 2001-2017
</metadata>
<g transform="translate(0.000000,600.000000) scale(0.100000,-0.100000)"
fill="#000000" stroke="none">
<path d="M1 2995 l1 -2995 773 0 773 0 88 121 c49 67 94 127 99 133 6 6 33 43
60 81 28 39 55 77 62 85 7 8 53 71 104 140 106 144 171 231 182 245 13 17 311
420 337 456 13 19 28 39 33 44 4 6 40 53 78 105 39 52 79 106 90 120 10 14 42
57 71 95 29 39 56 75 60 80 4 6 18 24 31 40 13 17 54 71 92 120 37 50 70 92
72 95 6 6 63 -57 63 -69 0 -6 4 -11 8 -11 5 0 24 -21 42 -47 18 -27 40 -55 47
-63 8 -8 34 -42 60 -75 25 -33 87 -113 137 -179 50 -65 96 -126 101 -134 6 -8
18 -25 27 -36 9 -12 44 -57 77 -101 33 -44 64 -84 68 -90 4 -5 42 -55 83 -110
41 -55 77 -102 81 -105 3 -3 10 -12 15 -21 5 -9 21 -32 36 -50 14 -19 63 -83
109 -144 45 -60 85 -112 88 -115 3 -3 11 -12 16 -21 9 -15 169 -229 224 -299
10 -14 37 -50 59 -80 41 -56 64 -85 93 -121 9 -11 27 -35 40 -54 l24 -35 748
0 747 0 0 2762 0 2762 -110 -155 c-61 -85 -134 -188 -162 -229 -29 -41 -57
-80 -62 -87 -6 -6 -29 -37 -51 -69 -22 -31 -55 -77 -72 -101 -18 -24 -33 -48
-33 -53 0 -6 -4 -10 -8 -10 -4 0 -16 -15 -27 -32 -10 -18 -23 -37 -27 -43 -4
-5 -18 -23 -31 -40 -13 -16 -29 -40 -36 -53 -9 -18 -12 -449 -12 -1876 l0
-1853 -241 1 -241 1 -254 330 c-139 182 -259 337 -266 345 -46 57 -344 445
-352 458 -5 9 -13 19 -16 22 -3 3 -39 48 -80 100 -40 52 -77 97 -81 98 -5 2
-8 9 -8 15 0 7 -10 23 -23 37 -12 14 -45 54 -72 90 -28 36 -52 67 -55 70 -3 3
-17 21 -30 40 -14 19 -32 44 -42 54 -10 11 -30 37 -44 58 l-27 39 23 32 c13
18 28 37 32 42 5 6 38 51 74 100 36 50 75 101 85 115 23 30 213 285 237 318 9
13 69 93 132 178 63 84 152 204 198 266 45 62 91 124 102 138 11 14 95 126
186 250 161 217 213 287 253 340 10 14 49 66 85 115 36 50 71 97 78 105 7 8
18 22 23 31 6 9 33 47 60 83 28 36 97 129 155 207 58 78 110 147 116 153 6 6
13 16 15 21 2 6 69 98 149 205 80 107 168 226 195 264 28 38 62 83 78 101 15
18 27 35 27 39 0 6 20 32 50 66 8 9 20 24 25 33 6 9 25 37 43 62 l33 45 -518
0 -518 0 -45 -62 c-25 -34 -50 -66 -55 -72 -11 -11 -150 -191 -190 -246 -29
-40 -69 -90 -80 -103 -6 -7 -40 -50 -75 -97 -35 -47 -83 -110 -107 -140 -24
-30 -47 -59 -51 -65 -34 -45 -422 -549 -447 -580 -13 -16 -51 -66 -84 -110
-33 -44 -70 -89 -81 -100 -11 -12 -20 -26 -20 -32 0 -6 -4 -13 -8 -15 -4 -1
-37 -41 -72 -88 -36 -47 -68 -87 -71 -90 -3 -3 -48 -61 -100 -129 -144 -190
-171 -224 -186 -239 -7 -7 -13 -17 -13 -20 0 -4 -10 -18 -23 -32 -12 -14 -41
-50 -65 -80 -23 -30 -45 -59 -50 -65 -4 -5 -19 -25 -32 -44 -14 -19 -35 -45
-46 -58 -12 -13 -32 -39 -45 -58 -13 -19 -29 -35 -34 -35 -9 0 -100 110 -220
265 -70 91 -209 270 -220 282 -17 21 -29 36 -100 128 -219 284 -271 352 -283
365 -7 8 -78 101 -158 205 -80 105 -150 197 -157 205 -7 8 -35 44 -62 80 -28
36 -54 70 -60 76 -5 7 -57 73 -115 149 -139 181 -467 605 -488 630 -9 11 -37
46 -61 78 -24 31 -47 57 -51 57 -5 0 -9 -288 -9 -640 l-2 -641 23 -32 c12 -18
25 -34 28 -37 3 -3 32 -41 65 -85 32 -44 65 -86 72 -93 7 -7 13 -17 13 -20 0
-4 10 -18 23 -32 13 -14 32 -39 43 -55 20 -32 20 -32 88 -117 25 -31 46 -61
46 -66 0 -6 4 -12 8 -14 5 -1 55 -66 113 -143 57 -77 106 -142 110 -145 3 -3
25 -32 49 -65 24 -33 50 -66 57 -73 7 -7 13 -16 13 -20 0 -4 10 -19 23 -34 13
-15 32 -39 43 -54 10 -15 26 -34 34 -43 9 -9 25 -32 37 -51 12 -19 32 -46 45
-60 13 -14 39 -48 58 -75 19 -28 45 -61 57 -75 13 -14 23 -28 23 -32 0 -3 6
-13 13 -20 7 -7 39 -49 72 -93 33 -44 63 -84 67 -90 5 -5 22 -28 39 -50 16
-22 35 -47 42 -55 7 -9 45 -59 84 -112 59 -79 70 -99 60 -110 -7 -7 -48 -60
-92 -118 -44 -58 -82 -107 -85 -110 -4 -3 -19 -23 -36 -45 -16 -22 -34 -46
-41 -55 -7 -8 -26 -33 -43 -55 -31 -41 -53 -69 -80 -104 -8 -11 -39 -50 -67
-88 -29 -37 -98 -126 -154 -198 -55 -71 -135 -175 -177 -230 -42 -55 -108
-141 -147 -191 -38 -50 -80 -104 -92 -120 -12 -16 -31 -40 -42 -54 -28 -36
-171 -221 -201 -260 -59 -78 -31 -73 -347 -71 l-103 1 0 2485 0 2485 -364 0
-365 0 0 -2995z"/>
</g>
</svg>
